<?xml version="1.0" encoding="utf-8"?>
<!-- Generator: Adobe Illustrator 15.0.0, SVG Export Plug-In . SVG Version: 6.00 Build 0)  -->
<!DOCTYPE svg PUBLIC "-//W3C//DTD SVG 1.1//EN" "http://www.w3.org/Graphics/SVG/1.1/DTD/svg11.dtd">
<svg version="1.1" xmlns="http://www.w3.org/2000/svg" xmlns:xlink="http://www.w3.org/1999/xlink" x="0px" y="0px"
	 width="841.89px" height="595.277px" viewBox="0 0 841.89 595.277" enable-background="new 0 0 841.89 595.277"
	 xml:space="preserve">
<g id="Layer_1">
	<g id="Layer_2">
		<rect x="65.825" y="52.086" fill="#478AC8" width="286.553" height="103.114"/>
		<rect x="166.106" y="195.794" fill="#478AC8" width="83.93" height="83.931"/>
	</g>
	<g id="Layer_1_1_">
		<g opacity="0.78">
			<path fill="#FFFFFF" d="M110.439,113.248c-1.716,1.554-3.965,2.331-6.748,2.331c-3.572,0-6.261-1.31-8.07-3.931
				c-1.554-2.249-2.331-5.252-2.331-9.008c0-3.757,0.8-6.806,2.4-9.148c1.832-2.644,4.568-3.965,8.209-3.965
				c2.481,0,4.58,0.684,6.295,2.052c1.229,0.974,2.099,2.168,2.609,3.583l-1.079,0.556c-1.136-3.431-3.814-5.147-8.034-5.147
				c-3.131,0-5.508,1.283-7.13,3.849c-1.369,2.174-2.052,4.902-2.052,8.186c0,3.307,0.66,6.012,1.982,8.115
				c1.577,2.543,3.918,3.815,7.026,3.815c2.504,0,4.533-0.672,6.086-2.017c1.206-1.043,2.006-2.388,2.4-4.035l1.009,0.521
				C112.573,110.697,111.715,112.111,110.439,113.248z"/>
			<path fill="#FFFFFF" d="M118.614,99.508c1.391-1.901,3.408-2.852,6.052-2.852s4.672,0.951,6.087,2.852
				c1.252,1.67,1.879,3.873,1.879,6.609c0,2.736-0.626,4.951-1.879,6.644c-1.438,1.855-3.467,2.783-6.087,2.783
				c-2.644,0-4.661-0.928-6.052-2.783c-1.252-1.693-1.879-3.907-1.879-6.644C116.735,103.381,117.361,101.178,118.614,99.508z
				 M119.413,112.006c1.206,1.732,2.957,2.598,5.252,2.598c2.296,0,4.058-0.866,5.287-2.598c1.043-1.479,1.565-3.43,1.565-5.854
				c0-2.401-0.521-4.353-1.565-5.854c-1.229-1.731-2.991-2.598-5.287-2.598c-2.319,0-4.069,0.866-5.252,2.598
				c-1.043,1.501-1.565,3.453-1.565,5.854C117.848,108.577,118.37,110.528,119.413,112.006z"/>
			<path fill="#FFFFFF" d="M151.657,115.09h-1.113v-4.005c-1.182,2.972-3.455,4.458-6.817,4.458c-2.667,0-4.696-0.928-6.087-2.783
				c-1.252-1.67-1.878-3.884-1.878-6.644c0-2.736,0.626-4.939,1.878-6.609c1.414-1.901,3.443-2.852,6.087-2.852
				c3.432,0,5.705,1.449,6.817,4.348V90.082h1.113V115.09z M148.979,100.297c-1.183-1.731-2.934-2.598-5.252-2.598
				c-2.319,0-4.069,0.866-5.252,2.598c-1.066,1.479-1.6,3.43-1.6,5.854c0,2.424,0.522,4.376,1.565,5.854
				c1.206,1.732,2.968,2.598,5.287,2.598c2.318,0,4.069-0.866,5.252-2.598c1.043-1.479,1.565-3.43,1.565-5.854
				C150.544,103.75,150.022,101.799,148.979,100.297z"/>
			<path fill="#FFFFFF" d="M163.169,115.543c-2.574,0-4.534-0.951-5.878-2.853c-1.16-1.692-1.74-3.884-1.74-6.574
				c0-2.69,0.58-4.87,1.74-6.539c1.344-1.948,3.304-2.922,5.878-2.922c2.527,0,4.452,0.87,5.774,2.608
				c1.205,1.554,1.809,3.641,1.809,6.261v0.661h-14.087v0.278c0,2.226,0.521,4.082,1.565,5.565c1.183,1.716,2.829,2.574,4.939,2.574
				c2.922,0,4.904-1.368,5.948-4.104l0.904,0.487c-0.463,1.229-1.194,2.238-2.191,3.026
				C166.532,115.033,164.978,115.543,163.169,115.543z M169.604,105.143c0-2.08-0.499-3.795-1.495-5.145
				c-1.113-1.532-2.679-2.298-4.696-2.298c-2.087,0-3.722,0.744-4.904,2.229c-1.043,1.349-1.635,3.087-1.774,5.214H169.604z"/>
			<path fill="#FFFFFF" d="M172.526,90.082h1.183l6.122,22.922l6.191-16.974h1.113l6.226,16.974l6.087-22.922h1.182l-6.678,25.009
				h-1.183l-6.191-17.426l-6.191,17.426h-1.183L172.526,90.082z"/>
			<path fill="#FFFFFF" d="M209.396,115.543c-2.574,0-4.534-0.951-5.878-2.853c-1.16-1.692-1.74-3.884-1.74-6.574
				c0-2.69,0.58-4.87,1.74-6.539c1.344-1.948,3.304-2.922,5.878-2.922c2.527,0,4.452,0.87,5.774,2.608
				c1.205,1.554,1.809,3.641,1.809,6.261v0.661h-14.087v0.278c0,2.226,0.522,4.082,1.565,5.565c1.183,1.716,2.829,2.574,4.939,2.574
				c2.922,0,4.904-1.368,5.948-4.104l0.904,0.487c-0.464,1.229-1.194,2.238-2.191,3.026
				C212.757,115.033,211.204,115.543,209.396,115.543z M215.83,105.143c0-2.08-0.499-3.795-1.496-5.145
				c-1.113-1.532-2.678-2.298-4.696-2.298c-2.087,0-3.721,0.744-4.904,2.229c-1.043,1.349-1.634,3.087-1.773,5.214H215.83z"/>
			<path fill="#FFFFFF" d="M227.586,115.543c-2.574,0-4.534-0.951-5.878-2.853c-1.16-1.692-1.74-3.884-1.74-6.574
				c0-2.69,0.58-4.87,1.74-6.539c1.344-1.948,3.304-2.922,5.878-2.922c2.527,0,4.452,0.87,5.774,2.608
				c1.205,1.554,1.808,3.641,1.808,6.261v0.661h-14.087v0.278c0,2.226,0.522,4.082,1.565,5.565c1.183,1.716,2.829,2.574,4.939,2.574
				c2.922,0,4.904-1.368,5.948-4.104l0.904,0.487c-0.463,1.229-1.194,2.238-2.191,3.026
				C230.949,115.033,229.395,115.543,227.586,115.543z M234.021,105.143c0-2.08-0.499-3.795-1.496-5.145
				c-1.112-1.532-2.678-2.298-4.695-2.298c-2.087,0-3.722,0.744-4.904,2.229c-1.043,1.349-1.635,3.087-1.774,5.214H234.021z"/>
			<path fill="#FFFFFF" d="M239.064,90.082h1.113v17.242l10.4-10.31h1.357l-6.575,6.583l7.618,11.494h-1.252l-7.13-10.713
				l-4.417,4.278v6.435h-1.113L239.064,90.082L239.064,90.082z"/>
		</g>
		<polygon fill="#FFFFFF" points="276.148,109.348 266.48,99.681 286.867,79.294 296.183,88.611 294.73,90.064 286.867,82.201 
			269.387,99.681 277.601,107.895 		"/>
		
			<rect x="276.836" y="92.339" transform="matrix(-0.7071 -0.7071 0.7071 -0.7071 412.9168 357.7696)" fill="#FFFFFF" width="7.438" height="2.055"/>
		<path fill="#FFFFFF" d="M296.401,123.546c-3.738,0-7.488-1.432-10.349-4.293l-7.977-7.977l1.454-1.453l7.976,7.977
			c4.879,4.878,12.769,4.929,17.589,0.109c2.353-2.353,3.639-5.466,3.623-8.768c-0.015-3.297-1.326-6.414-3.689-8.777l-8.021-8.021
			l1.453-1.453l8.021,8.021c2.749,2.749,4.273,6.378,4.292,10.221c0.019,3.854-1.482,7.487-4.225,10.231
			C303.758,122.153,300.086,123.546,296.401,123.546z"/>
		<path fill="#FFFFFF" d="M317.436,126.781c-1.954,0-3.908-0.743-5.393-2.228l-3.529-3.529l1.454-1.453l3.529,3.528
			c2.167,2.166,5.696,2.171,7.868,0.012l4.596-4.57l1.449,1.458l-4.596,4.569C321.33,126.043,319.382,126.781,317.436,126.781z"/>
		<g>
			<polygon fill="#FFFFFF" points="187.595,242.798 177.928,233.131 198.314,212.745 207.63,222.062 206.177,223.515 
				198.314,215.652 180.834,233.131 189.048,241.345 			"/>
			
				<rect x="188.284" y="225.79" transform="matrix(-0.7071 -0.7071 0.7071 -0.7071 167.3712 522.9668)" fill="#FFFFFF" width="7.437" height="2.055"/>
			<path fill="#FFFFFF" d="M207.849,256.997c-3.738,0-7.489-1.433-10.349-4.293l-7.976-7.978l1.453-1.453l7.977,7.978
				c4.879,4.878,12.769,4.928,17.589,0.109c2.353-2.354,3.639-5.467,3.623-8.769c-0.015-3.297-1.326-6.414-3.689-8.777l-8.02-8.02
				l1.453-1.454l8.021,8.021c2.749,2.748,4.273,6.379,4.292,10.221c0.019,3.854-1.482,7.487-4.226,10.231
				C215.205,255.603,211.533,256.997,207.849,256.997z"/>
			<path fill="#FFFFFF" d="M228.883,260.231c-1.954,0-3.908-0.742-5.393-2.229l-3.529-3.528l1.454-1.453l3.528,3.528
				c2.167,2.166,5.696,2.17,7.868,0.012l4.596-4.569l1.449,1.457l-4.596,4.569C232.776,259.494,230.83,260.231,228.883,260.231z"/>
		</g>
		<circle fill="#FFFFFF" cx="258.917" cy="113.724" r="1.713"/>
		<g opacity="0.78">
			<path fill="#478AC8" d="M511.324,113.248c-1.715,1.554-3.965,2.331-6.746,2.331c-3.572,0-6.262-1.31-8.07-3.931
				c-1.555-2.249-2.33-5.252-2.33-9.008c0-3.757,0.799-6.806,2.398-9.148c1.832-2.644,4.568-3.965,8.209-3.965
				c2.48,0,4.58,0.684,6.297,2.052c1.229,0.974,2.098,2.168,2.607,3.583l-1.078,0.556c-1.137-3.431-3.814-5.147-8.033-5.147
				c-3.131,0-5.51,1.283-7.131,3.849c-1.369,2.174-2.053,4.902-2.053,8.186c0,3.307,0.66,6.012,1.982,8.115
				c1.576,2.543,3.918,3.815,7.025,3.815c2.504,0,4.531-0.672,6.086-2.017c1.207-1.043,2.006-2.388,2.4-4.035l1.008,0.521
				C513.457,110.697,512.599,112.111,511.324,113.248z"/>
			<path fill="#478AC8" d="M519.5,99.508c1.391-1.901,3.408-2.852,6.051-2.852c2.645,0,4.672,0.951,6.088,2.852
				c1.252,1.67,1.877,3.873,1.877,6.609c0,2.736-0.625,4.951-1.877,6.644c-1.438,1.855-3.467,2.783-6.088,2.783
				c-2.643,0-4.66-0.928-6.051-2.783c-1.254-1.693-1.879-3.907-1.879-6.644C517.621,103.381,518.246,101.178,519.5,99.508z
				 M520.298,112.006c1.205,1.732,2.957,2.598,5.252,2.598s4.059-0.866,5.287-2.598c1.043-1.479,1.564-3.43,1.564-5.854
				c0-2.401-0.521-4.353-1.564-5.854c-1.229-1.731-2.992-2.598-5.287-2.598c-2.318,0-4.068,0.866-5.252,2.598
				c-1.043,1.501-1.564,3.453-1.564,5.854C518.734,108.577,519.255,110.528,520.298,112.006z"/>
			<path fill="#478AC8" d="M552.542,115.09h-1.113v-4.005c-1.184,2.972-3.455,4.458-6.816,4.458c-2.668,0-4.695-0.928-6.088-2.783
				c-1.252-1.67-1.877-3.884-1.877-6.644c0-2.736,0.625-4.939,1.877-6.609c1.414-1.901,3.443-2.852,6.088-2.852
				c3.432,0,5.705,1.449,6.816,4.348V90.082h1.113V115.09z M549.865,100.297c-1.186-1.731-2.936-2.598-5.254-2.598
				s-4.068,0.866-5.252,2.598c-1.066,1.479-1.6,3.43-1.6,5.854c0,2.424,0.521,4.376,1.564,5.854
				c1.205,1.732,2.967,2.598,5.287,2.598c2.316,0,4.068-0.866,5.252-2.598c1.043-1.479,1.564-3.43,1.564-5.854
				C551.429,103.75,550.908,101.799,549.865,100.297z"/>
			<path fill="#478AC8" d="M564.054,115.543c-2.572,0-4.533-0.951-5.877-2.853c-1.16-1.692-1.74-3.884-1.74-6.574
				c0-2.69,0.58-4.87,1.74-6.539c1.344-1.948,3.305-2.922,5.877-2.922c2.527,0,4.453,0.87,5.775,2.608
				c1.203,1.554,1.807,3.641,1.807,6.261v0.661H557.55v0.278c0,2.226,0.521,4.082,1.564,5.565c1.184,1.716,2.83,2.574,4.939,2.574
				c2.922,0,4.904-1.368,5.947-4.104l0.904,0.487c-0.463,1.229-1.195,2.238-2.191,3.026
				C567.417,115.033,565.863,115.543,564.054,115.543z M570.49,105.143c0-2.08-0.5-3.795-1.496-5.145
				c-1.113-1.532-2.678-2.298-4.695-2.298c-2.088,0-3.723,0.744-4.904,2.229c-1.043,1.349-1.635,3.087-1.773,5.214H570.49z"/>
			<path fill="#478AC8" d="M573.412,90.082h1.182l6.121,22.922l6.191-16.974h1.113l6.227,16.974l6.088-22.922h1.182l-6.678,25.009
				h-1.184l-6.191-17.426l-6.189,17.426h-1.184L573.412,90.082z"/>
			<path fill="#478AC8" d="M610.281,115.543c-2.574,0-4.535-0.951-5.879-2.853c-1.16-1.692-1.738-3.884-1.738-6.574
				c0-2.69,0.578-4.87,1.738-6.539c1.344-1.948,3.305-2.922,5.879-2.922c2.525,0,4.451,0.87,5.773,2.608
				c1.205,1.554,1.809,3.641,1.809,6.261v0.661h-14.086v0.278c0,2.226,0.52,4.082,1.563,5.565c1.186,1.716,2.83,2.574,4.939,2.574
				c2.922,0,4.904-1.368,5.949-4.104l0.902,0.487c-0.463,1.229-1.193,2.238-2.189,3.026
				C613.642,115.033,612.089,115.543,610.281,115.543z M616.714,105.143c0-2.08-0.498-3.795-1.494-5.145
				c-1.113-1.532-2.68-2.298-4.695-2.298c-2.088,0-3.723,0.744-4.904,2.229c-1.043,1.349-1.635,3.087-1.773,5.214H616.714z"/>
			<path fill="#478AC8" d="M628.472,115.543c-2.574,0-4.535-0.951-5.879-2.853c-1.16-1.692-1.74-3.884-1.74-6.574
				c0-2.69,0.58-4.87,1.74-6.539c1.344-1.948,3.305-2.922,5.879-2.922c2.525,0,4.451,0.87,5.773,2.608
				c1.205,1.554,1.809,3.641,1.809,6.261v0.661h-14.088v0.278c0,2.226,0.523,4.082,1.566,5.565c1.182,1.716,2.828,2.574,4.938,2.574
				c2.922,0,4.904-1.368,5.949-4.104l0.902,0.487c-0.463,1.229-1.193,2.238-2.191,3.026
				C631.833,115.033,630.281,115.543,628.472,115.543z M634.906,105.143c0-2.08-0.498-3.795-1.496-5.145
				c-1.111-1.532-2.678-2.298-4.695-2.298c-2.086,0-3.721,0.744-4.904,2.229c-1.043,1.349-1.635,3.087-1.771,5.214H634.906z"/>
			<path fill="#478AC8" d="M639.949,90.082h1.113v17.242l10.4-10.31h1.355l-6.574,6.583l7.617,11.494h-1.252l-7.131-10.713
				l-4.418,4.278v6.435h-1.111V90.082L639.949,90.082z"/>
		</g>
		<polygon fill="#478AC8" points="677.033,109.348 667.365,99.681 687.751,79.294 697.068,88.611 695.615,90.064 687.751,82.201 
			670.271,99.681 678.486,107.895 		"/>
		
			<rect x="677.744" y="92.317" transform="matrix(-0.707 -0.7072 0.7072 -0.707 1097.2734 641.2548)" fill="#478AC8" width="7.436" height="2.055"/>
		<path fill="#478AC8" d="M697.287,123.546c-3.738,0-7.488-1.432-10.35-4.293l-7.977-7.977l1.453-1.453l7.977,7.977
			c4.879,4.878,12.77,4.929,17.59,0.109c2.354-2.353,3.639-5.466,3.623-8.768c-0.016-3.297-1.326-6.414-3.689-8.777l-8.021-8.021
			l1.453-1.453l8.021,8.021c2.75,2.749,4.273,6.378,4.293,10.221c0.018,3.854-1.482,7.487-4.227,10.231
			C704.642,122.153,700.97,123.546,697.287,123.546z"/>
		<path fill="#478AC8" d="M718.322,126.781c-1.955,0-3.908-0.743-5.395-2.228l-3.527-3.529l1.451-1.453l3.529,3.528
			c2.166,2.166,5.695,2.171,7.867,0.012l4.596-4.57l1.449,1.458l-4.596,4.569C722.214,126.043,720.267,126.781,718.322,126.781z"/>
		<g>
			<polygon fill="#478AC8" points="588.48,244.07 578.812,234.403 599.199,214.017 608.515,223.334 607.062,224.787 
				599.199,216.924 581.718,234.403 589.933,242.617 			"/>
			
				<rect x="589.166" y="227.059" transform="matrix(-0.7072 -0.707 0.707 -0.7072 850.8904 808.578)" fill="#478AC8" width="7.438" height="2.055"/>
			<path fill="#478AC8" d="M608.734,258.269c-3.738,0-7.488-1.433-10.35-4.293l-7.977-7.978l1.453-1.453l7.977,7.978
				c4.879,4.878,12.768,4.928,17.59,0.109c2.354-2.354,3.639-5.467,3.623-8.769c-0.016-3.297-1.326-6.414-3.689-8.777l-8.021-8.02
				l1.453-1.454l8.021,8.021c2.748,2.748,4.273,6.379,4.291,10.221c0.02,3.854-1.48,7.487-4.225,10.231
				C616.089,256.875,612.417,258.269,608.734,258.269z"/>
			<path fill="#478AC8" d="M629.767,261.503c-1.951,0-3.906-0.742-5.393-2.229l-3.527-3.528l1.453-1.453l3.527,3.528
				c2.168,2.166,5.697,2.17,7.869,0.012l4.596-4.569l1.449,1.457l-4.598,4.569C633.662,260.766,631.714,261.503,629.767,261.503z"/>
		</g>
		<circle fill="#478AC8" cx="659.802" cy="113.724" r="1.713"/>
	</g>
</g>
<g id="Layer_2_1_">
</g>
</svg>
