<?xml version="1.0" encoding="utf-8"?>
<!-- Generator: Adobe Illustrator 15.0.0, SVG Export Plug-In . SVG Version: 6.00 Build 0)  -->
<!DOCTYPE svg PUBLIC "-//W3C//DTD SVG 1.1//EN" "http://www.w3.org/Graphics/SVG/1.1/DTD/svg11.dtd">
<svg version="1.1" xmlns="http://www.w3.org/2000/svg" xmlns:xlink="http://www.w3.org/1999/xlink" x="0px" y="0px"
	 width="841.89px" height="595.276px" viewBox="0 0 841.89 595.276" enable-background="new 0 0 841.89 595.276"
	 xml:space="preserve">
<g id="Layer_2">
	<rect x="65.825" y="52.086" fill="#1D1D1B" width="286.553" height="103.114"/>
	<rect x="166.106" y="195.794" fill="#1D1D1B" width="83.93" height="83.931"/>
	<rect x="65.825" y="331.072" fill="#706F6F" width="286.553" height="103.114"/>
	<rect x="166.106" y="474.78" fill="#706F6F" width="83.93" height="83.931"/>
</g>
<g id="Layer_1">
	<g opacity="0.78">
		<path fill="#FFFFFF" d="M110.439,113.248c-1.716,1.554-3.965,2.331-6.748,2.331c-3.572,0-6.261-1.31-8.07-3.931
			c-1.554-2.249-2.331-5.252-2.331-9.008c0-3.757,0.8-6.806,2.4-9.148c1.832-2.644,4.568-3.965,8.209-3.965
			c2.481,0,4.58,0.684,6.295,2.052c1.229,0.974,2.099,2.168,2.609,3.583l-1.079,0.556c-1.136-3.431-3.814-5.147-8.034-5.147
			c-3.131,0-5.508,1.283-7.13,3.849c-1.369,2.174-2.052,4.902-2.052,8.186c0,3.307,0.66,6.012,1.982,8.115
			c1.577,2.543,3.918,3.815,7.026,3.815c2.504,0,4.533-0.672,6.086-2.017c1.206-1.043,2.006-2.388,2.4-4.035l1.009,0.521
			C112.573,110.697,111.715,112.111,110.439,113.248z"/>
		<path fill="#FFFFFF" d="M118.614,99.508c1.391-1.901,3.408-2.852,6.052-2.852s4.672,0.951,6.087,2.852
			c1.252,1.67,1.879,3.873,1.879,6.609c0,2.736-0.626,4.951-1.879,6.644c-1.438,1.855-3.467,2.783-6.087,2.783
			c-2.644,0-4.661-0.928-6.052-2.783c-1.252-1.693-1.879-3.907-1.879-6.644C116.735,103.381,117.361,101.178,118.614,99.508z
			 M119.413,112.006c1.206,1.732,2.957,2.598,5.252,2.598c2.296,0,4.058-0.866,5.287-2.598c1.043-1.479,1.565-3.43,1.565-5.854
			c0-2.401-0.521-4.353-1.565-5.854c-1.229-1.731-2.991-2.598-5.287-2.598c-2.319,0-4.069,0.866-5.252,2.598
			c-1.043,1.501-1.565,3.453-1.565,5.854C117.848,108.577,118.37,110.528,119.413,112.006z"/>
		<path fill="#FFFFFF" d="M151.657,115.09h-1.113v-4.005c-1.182,2.972-3.455,4.458-6.817,4.458c-2.667,0-4.696-0.928-6.087-2.783
			c-1.252-1.67-1.878-3.884-1.878-6.644c0-2.736,0.626-4.939,1.878-6.609c1.414-1.901,3.443-2.852,6.087-2.852
			c3.432,0,5.705,1.449,6.817,4.348V90.082h1.113V115.09z M148.979,100.297c-1.183-1.731-2.934-2.598-5.252-2.598
			c-2.319,0-4.069,0.866-5.252,2.598c-1.066,1.479-1.6,3.43-1.6,5.854s0.522,4.376,1.565,5.854c1.206,1.732,2.968,2.598,5.287,2.598
			c2.318,0,4.069-0.866,5.252-2.598c1.043-1.479,1.565-3.43,1.565-5.854C150.544,103.75,150.022,101.799,148.979,100.297z"/>
		<path fill="#FFFFFF" d="M163.169,115.543c-2.574,0-4.534-0.951-5.878-2.853c-1.16-1.692-1.74-3.884-1.74-6.574
			s0.58-4.87,1.74-6.539c1.344-1.948,3.304-2.922,5.878-2.922c2.527,0,4.452,0.87,5.774,2.608c1.205,1.554,1.809,3.641,1.809,6.261
			v0.661h-14.087v0.278c0,2.226,0.521,4.082,1.565,5.565c1.183,1.716,2.829,2.574,4.939,2.574c2.922,0,4.904-1.368,5.948-4.104
			l0.904,0.487c-0.463,1.229-1.194,2.238-2.191,3.026C166.532,115.033,164.978,115.543,163.169,115.543z M169.604,105.143
			c0-2.08-0.499-3.795-1.495-5.145c-1.113-1.532-2.679-2.298-4.696-2.298c-2.087,0-3.722,0.744-4.904,2.229
			c-1.043,1.349-1.635,3.087-1.774,5.214H169.604z"/>
		<path fill="#FFFFFF" d="M172.526,90.082h1.183l6.122,22.922l6.191-16.974h1.113l6.226,16.974l6.087-22.922h1.182l-6.678,25.009
			h-1.183l-6.191-17.426l-6.191,17.426h-1.183L172.526,90.082z"/>
		<path fill="#FFFFFF" d="M209.396,115.543c-2.574,0-4.534-0.951-5.878-2.853c-1.16-1.692-1.74-3.884-1.74-6.574
			s0.58-4.87,1.74-6.539c1.344-1.948,3.304-2.922,5.878-2.922c2.527,0,4.452,0.87,5.774,2.608c1.205,1.554,1.809,3.641,1.809,6.261
			v0.661h-14.087v0.278c0,2.226,0.522,4.082,1.565,5.565c1.183,1.716,2.829,2.574,4.939,2.574c2.922,0,4.904-1.368,5.948-4.104
			l0.904,0.487c-0.464,1.229-1.194,2.238-2.191,3.026C212.757,115.033,211.204,115.543,209.396,115.543z M215.83,105.143
			c0-2.08-0.499-3.795-1.496-5.145c-1.113-1.532-2.678-2.298-4.696-2.298c-2.087,0-3.721,0.744-4.904,2.229
			c-1.043,1.349-1.634,3.087-1.773,5.214H215.83z"/>
		<path fill="#FFFFFF" d="M227.586,115.543c-2.574,0-4.534-0.951-5.878-2.853c-1.16-1.692-1.74-3.884-1.74-6.574
			s0.58-4.87,1.74-6.539c1.344-1.948,3.304-2.922,5.878-2.922c2.527,0,4.452,0.87,5.774,2.608c1.205,1.554,1.808,3.641,1.808,6.261
			v0.661h-14.087v0.278c0,2.226,0.522,4.082,1.565,5.565c1.183,1.716,2.829,2.574,4.939,2.574c2.922,0,4.904-1.368,5.948-4.104
			l0.904,0.487c-0.463,1.229-1.194,2.238-2.191,3.026C230.949,115.033,229.395,115.543,227.586,115.543z M234.021,105.143
			c0-2.08-0.499-3.795-1.496-5.145c-1.112-1.532-2.678-2.298-4.695-2.298c-2.087,0-3.722,0.744-4.904,2.229
			c-1.043,1.349-1.635,3.087-1.774,5.214H234.021z"/>
		<path fill="#FFFFFF" d="M239.064,90.082h1.113v17.242l10.4-10.31h1.357l-6.575,6.583l7.618,11.494h-1.252l-7.13-10.713
			l-4.417,4.278v6.435h-1.113V90.082z"/>
	</g>
	<polygon fill="#FFFFFF" points="276.148,109.348 266.48,99.681 286.867,79.294 296.183,88.611 294.73,90.064 286.867,82.201 
		269.387,99.681 277.601,107.895 	"/>
	
		<rect x="276.837" y="92.342" transform="matrix(0.7071 0.7071 -0.7071 0.7071 148.1955 -171.0357)" fill="#FFFFFF" width="7.438" height="2.055"/>
	<path fill="#FFFFFF" d="M296.401,123.546c-3.738,0-7.488-1.432-10.349-4.293l-7.977-7.977l1.454-1.453l7.976,7.977
		c4.879,4.878,12.769,4.929,17.589,0.109c2.353-2.353,3.639-5.466,3.623-8.768c-0.015-3.297-1.326-6.414-3.689-8.777l-8.021-8.021
		l1.453-1.453l8.021,8.021c2.749,2.749,4.273,6.378,4.292,10.221c0.019,3.854-1.482,7.487-4.225,10.231
		C303.758,122.153,300.086,123.546,296.401,123.546z"/>
	<path fill="#FFFFFF" d="M317.436,126.781c-1.954,0-3.908-0.743-5.393-2.228l-3.529-3.529l1.454-1.453l3.529,3.528
		c2.167,2.166,5.696,2.171,7.868,0.012l4.596-4.57l1.449,1.458l-4.596,4.569C321.33,126.043,319.382,126.781,317.436,126.781z"/>
	<g>
		<polygon fill="#FFFFFF" points="187.595,242.798 177.928,233.131 198.314,212.745 207.63,222.062 206.177,223.515 
			198.314,215.652 180.834,233.131 189.048,241.345 		"/>
		
			<rect x="188.284" y="225.793" transform="matrix(0.7071 0.7071 -0.7071 0.7071 216.6225 -69.3324)" fill="#FFFFFF" width="7.437" height="2.055"/>
		<path fill="#FFFFFF" d="M207.849,256.997c-3.738,0-7.489-1.433-10.349-4.293l-7.976-7.978l1.453-1.453l7.977,7.978
			c4.879,4.878,12.769,4.928,17.589,0.109c2.353-2.354,3.639-5.467,3.623-8.769c-0.015-3.297-1.326-6.414-3.689-8.777l-8.02-8.02
			l1.453-1.454l8.021,8.021c2.749,2.748,4.273,6.379,4.292,10.221c0.019,3.854-1.482,7.487-4.226,10.231
			C215.205,255.603,211.533,256.997,207.849,256.997z"/>
		<path fill="#FFFFFF" d="M228.883,260.231c-1.954,0-3.908-0.742-5.393-2.229l-3.529-3.528l1.454-1.453l3.528,3.528
			c2.167,2.166,5.696,2.17,7.868,0.012l4.596-4.569l1.449,1.457l-4.596,4.569C232.776,259.494,230.83,260.231,228.883,260.231z"/>
	</g>
	<circle fill="#FFFFFF" cx="258.917" cy="113.724" r="1.713"/>
	<g opacity="0.78">
		<path fill="#FFFFFF" d="M110.439,392.233c-1.716,1.554-3.965,2.331-6.748,2.331c-3.572,0-6.261-1.311-8.07-3.932
			c-1.554-2.248-2.331-5.252-2.331-9.008c0-3.757,0.8-6.806,2.4-9.148c1.832-2.644,4.568-3.965,8.209-3.965
			c2.481,0,4.58,0.684,6.295,2.053c1.229,0.973,2.099,2.168,2.609,3.582l-1.079,0.557c-1.136-3.432-3.814-5.148-8.034-5.148
			c-3.131,0-5.508,1.283-7.13,3.85c-1.369,2.174-2.052,4.902-2.052,8.186c0,3.307,0.66,6.012,1.982,8.115
			c1.577,2.543,3.918,3.814,7.026,3.814c2.504,0,4.533-0.672,6.086-2.017c1.206-1.044,2.006-2.388,2.4-4.034l1.009,0.521
			C112.573,389.684,111.715,391.098,110.439,392.233z"/>
		<path fill="#FFFFFF" d="M118.614,378.494c1.391-1.9,3.408-2.852,6.052-2.852s4.672,0.951,6.087,2.852
			c1.252,1.67,1.879,3.873,1.879,6.609s-0.626,4.95-1.879,6.643c-1.438,1.855-3.467,2.783-6.087,2.783
			c-2.644,0-4.661-0.928-6.052-2.783c-1.252-1.692-1.879-3.906-1.879-6.643S117.361,380.164,118.614,378.494z M119.413,390.992
			c1.206,1.732,2.957,2.598,5.252,2.598c2.296,0,4.058-0.865,5.287-2.598c1.043-1.479,1.565-3.43,1.565-5.854
			c0-2.401-0.521-4.353-1.565-5.854c-1.229-1.731-2.991-2.598-5.287-2.598c-2.319,0-4.069,0.866-5.252,2.598
			c-1.043,1.502-1.565,3.453-1.565,5.854C117.848,387.563,118.37,389.514,119.413,390.992z"/>
		<path fill="#FFFFFF" d="M151.657,394.076h-1.113v-4.006c-1.182,2.973-3.455,4.459-6.817,4.459c-2.667,0-4.696-0.928-6.087-2.783
			c-1.252-1.67-1.878-3.883-1.878-6.643c0-2.736,0.626-4.939,1.878-6.609c1.414-1.9,3.443-2.852,6.087-2.852
			c3.432,0,5.705,1.449,6.817,4.348v-10.922h1.113V394.076z M148.979,379.283c-1.183-1.731-2.934-2.598-5.252-2.598
			c-2.319,0-4.069,0.866-5.252,2.598c-1.066,1.479-1.6,3.43-1.6,5.854s0.522,4.376,1.565,5.854c1.206,1.732,2.968,2.598,5.287,2.598
			c2.318,0,4.069-0.865,5.252-2.598c1.043-1.479,1.565-3.43,1.565-5.854C150.544,382.736,150.022,380.785,148.979,379.283z"/>
		<path fill="#FFFFFF" d="M163.169,394.529c-2.574,0-4.534-0.951-5.878-2.853c-1.16-1.692-1.74-3.884-1.74-6.573
			c0-2.69,0.58-4.87,1.74-6.539c1.344-1.948,3.304-2.922,5.878-2.922c2.527,0,4.452,0.869,5.774,2.607
			c1.205,1.555,1.809,3.642,1.809,6.262v0.661h-14.087v0.278c0,2.226,0.521,4.081,1.565,5.564c1.183,1.717,2.829,2.574,4.939,2.574
			c2.922,0,4.904-1.368,5.948-4.104l0.904,0.487c-0.463,1.229-1.194,2.238-2.191,3.025
			C166.532,394.02,164.978,394.529,163.169,394.529z M169.604,384.129c0-2.08-0.499-3.795-1.495-5.145
			c-1.113-1.533-2.679-2.299-4.696-2.299c-2.087,0-3.722,0.744-4.904,2.229c-1.043,1.349-1.635,3.087-1.774,5.214H169.604z"/>
		<path fill="#FFFFFF" d="M172.526,369.068h1.183l6.122,22.922l6.191-16.975h1.113l6.226,16.975l6.087-22.922h1.182l-6.678,25.008
			h-1.183l-6.191-17.426l-6.191,17.426h-1.183L172.526,369.068z"/>
		<path fill="#FFFFFF" d="M209.396,394.529c-2.574,0-4.534-0.951-5.878-2.853c-1.16-1.692-1.74-3.884-1.74-6.573
			c0-2.69,0.58-4.87,1.74-6.539c1.344-1.948,3.304-2.922,5.878-2.922c2.527,0,4.452,0.869,5.774,2.607
			c1.205,1.555,1.809,3.642,1.809,6.262v0.661h-14.087v0.278c0,2.226,0.522,4.081,1.565,5.564c1.183,1.717,2.829,2.574,4.939,2.574
			c2.922,0,4.904-1.368,5.948-4.104l0.904,0.487c-0.464,1.229-1.194,2.238-2.191,3.025
			C212.757,394.02,211.204,394.529,209.396,394.529z M215.83,384.129c0-2.08-0.499-3.795-1.496-5.145
			c-1.113-1.533-2.678-2.299-4.696-2.299c-2.087,0-3.721,0.744-4.904,2.229c-1.043,1.349-1.634,3.087-1.773,5.214H215.83z"/>
		<path fill="#FFFFFF" d="M227.586,394.529c-2.574,0-4.534-0.951-5.878-2.853c-1.16-1.692-1.74-3.884-1.74-6.573
			c0-2.69,0.58-4.87,1.74-6.539c1.344-1.948,3.304-2.922,5.878-2.922c2.527,0,4.452,0.869,5.774,2.607
			c1.205,1.555,1.808,3.642,1.808,6.262v0.661h-14.087v0.278c0,2.226,0.522,4.081,1.565,5.564c1.183,1.717,2.829,2.574,4.939,2.574
			c2.922,0,4.904-1.368,5.948-4.104l0.904,0.487c-0.463,1.229-1.194,2.238-2.191,3.025
			C230.949,394.02,229.395,394.529,227.586,394.529z M234.021,384.129c0-2.08-0.499-3.795-1.496-5.145
			c-1.112-1.533-2.678-2.299-4.695-2.299c-2.087,0-3.722,0.744-4.904,2.229c-1.043,1.349-1.635,3.087-1.774,5.214H234.021z"/>
		<path fill="#FFFFFF" d="M239.064,369.068h1.113v17.241l10.4-10.31h1.357l-6.575,6.583l7.618,11.493h-1.252l-7.13-10.713
			l-4.417,4.279v6.434h-1.113V369.068z"/>
	</g>
	<polygon fill="#FFFFFF" points="276.148,388.334 266.48,378.667 286.867,358.28 296.183,367.598 294.73,369.051 286.867,361.188 
		269.387,378.667 277.601,386.881 	"/>
	
		<rect x="276.837" y="371.328" transform="matrix(0.7071 0.7071 -0.7071 0.7071 345.447 -89.3257)" fill="#FFFFFF" width="7.437" height="2.055"/>
	<path fill="#FFFFFF" d="M296.401,402.531c-3.738,0-7.488-1.432-10.349-4.293l-7.977-7.977l1.454-1.453l7.976,7.977
		c4.879,4.879,12.769,4.93,17.589,0.109c2.353-2.353,3.639-5.466,3.623-8.768c-0.015-3.297-1.326-6.414-3.689-8.777l-8.021-8.021
		l1.453-1.453l8.021,8.021c2.749,2.748,4.273,6.379,4.292,10.221c0.019,3.854-1.482,7.487-4.225,10.23
		C303.758,401.139,300.086,402.531,296.401,402.531z"/>
	<path fill="#FFFFFF" d="M317.436,405.767c-1.954,0-3.908-0.743-5.393-2.228l-3.529-3.529l1.454-1.453l3.529,3.528
		c2.167,2.166,5.696,2.171,7.868,0.012l4.596-4.569l1.449,1.457l-4.596,4.569C321.33,405.029,319.382,405.767,317.436,405.767z"/>
	<g>
		<polygon fill="#FFFFFF" points="187.595,521.784 177.928,512.117 198.314,491.73 207.63,501.048 206.177,502.501 198.314,494.638 
			180.834,512.117 189.048,520.331 		"/>
		
			<rect x="188.284" y="504.779" transform="matrix(0.7071 0.7071 -0.7071 0.7071 413.8953 12.3806)" fill="#FFFFFF" width="7.437" height="2.055"/>
		<path fill="#FFFFFF" d="M207.849,535.982c-3.738,0-7.489-1.433-10.349-4.293l-7.976-7.978l1.453-1.453l7.977,7.978
			c4.879,4.878,12.769,4.928,17.589,0.109c2.353-2.354,3.639-5.467,3.623-8.769c-0.015-3.297-1.326-6.414-3.689-8.777l-8.02-8.02
			l1.453-1.454l8.021,8.021c2.749,2.748,4.273,6.379,4.292,10.221c0.019,3.854-1.482,7.487-4.226,10.231
			C215.205,534.589,211.533,535.982,207.849,535.982z"/>
		<path fill="#FFFFFF" d="M228.883,539.217c-1.954,0-3.908-0.742-5.393-2.229l-3.529-3.528l1.454-1.453l3.528,3.528
			c2.167,2.166,5.696,2.17,7.868,0.012l4.596-4.569l1.449,1.457l-4.596,4.569C232.776,538.479,230.83,539.217,228.883,539.217z"/>
	</g>
	<circle fill="#FFFFFF" cx="258.917" cy="392.709" r="1.713"/>
	<g opacity="0.78">
		<path fill="#1D1D1B" d="M511.324,113.248c-1.716,1.554-3.965,2.331-6.747,2.331c-3.572,0-6.261-1.31-8.07-3.931
			c-1.554-2.249-2.33-5.252-2.33-9.008c0-3.757,0.8-6.806,2.399-9.148c1.832-2.644,4.568-3.965,8.209-3.965
			c2.481,0,4.579,0.684,6.296,2.052c1.229,0.974,2.099,2.168,2.608,3.583l-1.078,0.556c-1.137-3.431-3.814-5.147-8.034-5.147
			c-3.131,0-5.509,1.283-7.131,3.849c-1.368,2.174-2.052,4.902-2.052,8.186c0,3.307,0.66,6.012,1.982,8.115
			c1.576,2.543,3.918,3.815,7.025,3.815c2.505,0,4.533-0.672,6.087-2.017c1.206-1.043,2.006-2.388,2.4-4.035l1.009,0.521
			C513.457,110.697,512.6,112.111,511.324,113.248z"/>
		<path fill="#1D1D1B" d="M519.499,99.508c1.391-1.901,3.408-2.852,6.052-2.852s4.672,0.951,6.087,2.852
			c1.252,1.67,1.878,3.873,1.878,6.609c0,2.736-0.626,4.951-1.878,6.644c-1.438,1.855-3.467,2.783-6.087,2.783
			c-2.644,0-4.661-0.928-6.052-2.783c-1.253-1.693-1.879-3.907-1.879-6.644C517.62,103.381,518.246,101.178,519.499,99.508z
			 M520.298,112.006c1.206,1.732,2.957,2.598,5.253,2.598c2.295,0,4.057-0.866,5.287-2.598c1.043-1.479,1.564-3.43,1.564-5.854
			c0-2.401-0.521-4.353-1.564-5.854c-1.23-1.731-2.992-2.598-5.287-2.598c-2.319,0-4.069,0.866-5.253,2.598
			c-1.043,1.501-1.564,3.453-1.564,5.854C518.733,108.577,519.255,110.528,520.298,112.006z"/>
		<path fill="#1D1D1B" d="M552.542,115.09h-1.113v-4.005c-1.183,2.972-3.455,4.458-6.817,4.458c-2.667,0-4.695-0.928-6.087-2.783
			c-1.252-1.67-1.878-3.884-1.878-6.644c0-2.736,0.626-4.939,1.878-6.609c1.414-1.901,3.443-2.852,6.087-2.852
			c3.432,0,5.705,1.449,6.817,4.348V90.082h1.113V115.09z M549.864,100.297c-1.184-1.731-2.935-2.598-5.253-2.598
			c-2.319,0-4.069,0.866-5.252,2.598c-1.066,1.479-1.6,3.43-1.6,5.854s0.521,4.376,1.564,5.854c1.206,1.732,2.968,2.598,5.287,2.598
			c2.318,0,4.069-0.866,5.253-2.598c1.043-1.479,1.564-3.43,1.564-5.854C551.429,103.75,550.907,101.799,549.864,100.297z"/>
		<path fill="#1D1D1B" d="M564.055,115.543c-2.574,0-4.534-0.951-5.878-2.853c-1.16-1.692-1.74-3.884-1.74-6.574
			s0.58-4.87,1.74-6.539c1.344-1.948,3.304-2.922,5.878-2.922c2.527,0,4.452,0.87,5.774,2.608c1.204,1.554,1.808,3.641,1.808,6.261
			v0.661h-14.086v0.278c0,2.226,0.521,4.082,1.564,5.565c1.183,1.716,2.829,2.574,4.939,2.574c2.922,0,4.904-1.368,5.948-4.104
			l0.903,0.487c-0.463,1.229-1.194,2.238-2.191,3.026C567.417,115.033,565.863,115.543,564.055,115.543z M570.489,105.143
			c0-2.08-0.499-3.795-1.495-5.145c-1.113-1.532-2.679-2.298-4.696-2.298c-2.087,0-3.722,0.744-4.904,2.229
			c-1.043,1.349-1.635,3.087-1.773,5.214H570.489z"/>
		<path fill="#1D1D1B" d="M573.411,90.082h1.182l6.122,22.922l6.191-16.974h1.113l6.227,16.974l6.087-22.922h1.183l-6.679,25.009
			h-1.183l-6.191-17.426l-6.19,17.426h-1.184L573.411,90.082z"/>
		<path fill="#1D1D1B" d="M610.28,115.543c-2.574,0-4.534-0.951-5.878-2.853c-1.16-1.692-1.739-3.884-1.739-6.574
			s0.579-4.87,1.739-6.539c1.344-1.948,3.304-2.922,5.878-2.922c2.527,0,4.452,0.87,5.774,2.608
			c1.205,1.554,1.809,3.641,1.809,6.261v0.661h-14.087v0.278c0,2.226,0.521,4.082,1.564,5.565c1.184,1.716,2.829,2.574,4.939,2.574
			c2.922,0,4.904-1.368,5.948-4.104l0.904,0.487c-0.464,1.229-1.194,2.238-2.191,3.026
			C613.643,115.033,612.089,115.543,610.28,115.543z M616.715,105.143c0-2.08-0.498-3.795-1.495-5.145
			c-1.113-1.532-2.679-2.298-4.696-2.298c-2.087,0-3.721,0.744-4.904,2.229c-1.043,1.349-1.635,3.087-1.773,5.214H616.715z"/>
		<path fill="#1D1D1B" d="M628.472,115.543c-2.574,0-4.534-0.951-5.878-2.853c-1.16-1.692-1.74-3.884-1.74-6.574
			s0.58-4.87,1.74-6.539c1.344-1.948,3.304-2.922,5.878-2.922c2.526,0,4.452,0.87,5.774,2.608c1.204,1.554,1.808,3.641,1.808,6.261
			v0.661h-14.087v0.278c0,2.226,0.522,4.082,1.565,5.565c1.183,1.716,2.829,2.574,4.939,2.574c2.922,0,4.904-1.368,5.948-4.104
			l0.903,0.487c-0.464,1.229-1.194,2.238-2.191,3.026C631.834,115.033,630.28,115.543,628.472,115.543z M634.906,105.143
			c0-2.08-0.499-3.795-1.496-5.145c-1.112-1.532-2.678-2.298-4.695-2.298c-2.087,0-3.722,0.744-4.904,2.229
			c-1.043,1.349-1.635,3.087-1.773,5.214H634.906z"/>
		<path fill="#1D1D1B" d="M639.949,90.082h1.113v17.242l10.4-10.31h1.356l-6.574,6.583l7.617,11.494h-1.252l-7.13-10.713
			l-4.418,4.278v6.435h-1.113V90.082z"/>
	</g>
	<polygon fill="#1D1D1B" points="677.033,109.348 667.365,99.681 687.752,79.294 697.068,88.611 695.615,90.064 687.752,82.201 
		670.271,99.681 678.486,107.895 	"/>
	
		<rect x="677.722" y="92.342" transform="matrix(0.7071 0.7071 -0.7071 0.7071 265.6373 -454.5234)" fill="#1D1D1B" width="7.437" height="2.055"/>
	<path fill="#1D1D1B" d="M697.286,123.546c-3.737,0-7.488-1.432-10.349-4.293l-7.977-7.977l1.453-1.453l7.977,7.977
		c4.88,4.878,12.769,4.929,17.59,0.109c2.353-2.353,3.639-5.466,3.623-8.768c-0.016-3.297-1.326-6.414-3.689-8.777l-8.021-8.021
		l1.453-1.453l8.021,8.021c2.749,2.749,4.273,6.378,4.292,10.221c0.019,3.854-1.482,7.487-4.226,10.231
		C704.643,122.153,700.971,123.546,697.286,123.546z"/>
	<path fill="#1D1D1B" d="M718.321,126.781c-1.954,0-3.908-0.743-5.394-2.228l-3.528-3.529l1.453-1.453l3.528,3.528
		c2.167,2.166,5.696,2.171,7.868,0.012l4.596-4.57l1.449,1.458l-4.596,4.569C722.214,126.043,720.268,126.781,718.321,126.781z"/>
	<g>
		<polygon fill="#1D1D1B" points="588.48,244.07 578.813,234.403 599.199,214.017 608.516,223.334 607.062,224.787 599.199,216.924 
			581.719,234.403 589.934,242.617 		"/>
		
			<rect x="589.17" y="227.065" transform="matrix(0.7071 0.7071 -0.7071 0.7071 334.9385 -352.4286)" fill="#1D1D1B" width="7.437" height="2.055"/>
		<path fill="#1D1D1B" d="M608.733,258.269c-3.737,0-7.488-1.433-10.349-4.293l-7.977-7.978l1.453-1.453l7.977,7.978
			c4.879,4.878,12.769,4.928,17.59,0.109c2.353-2.354,3.639-5.467,3.623-8.769c-0.016-3.297-1.326-6.414-3.689-8.777l-8.021-8.02
			l1.453-1.454l8.021,8.021c2.749,2.748,4.273,6.379,4.291,10.221c0.02,3.854-1.481,7.487-4.225,10.231
			C616.09,256.875,612.418,258.269,608.733,258.269z"/>
		<path fill="#1D1D1B" d="M629.768,261.503c-1.953,0-3.907-0.742-5.393-2.229l-3.528-3.528l1.453-1.453l3.528,3.528
			c2.167,2.166,5.696,2.17,7.868,0.012l4.596-4.569l1.449,1.457l-4.596,4.569C633.661,260.766,631.715,261.503,629.768,261.503z"/>
	</g>
	<circle fill="#1D1D1B" cx="659.802" cy="113.724" r="1.713"/>
</g>
</svg>
